<?xml version="1.0" standalone="no"?>
<!DOCTYPE svg PUBLIC "-//W3C//DTD SVG 20010904//EN"
 "http://www.w3.org/TR/2001/REC-SVG-20010904/DTD/svg10.dtd">
<svg version="1.0" xmlns="http://www.w3.org/2000/svg"
 width="1024.000000pt" height="1024.000000pt" viewBox="0 0 1024.000000 1024.000000"
 preserveAspectRatio="xMidYMid meet">

<g transform="translate(0.000000,1024.000000) scale(0.100000,-0.100000)"
fill="#000000" stroke="none">
<path d="M2035 10230 c-3 -5 1 -10 10 -10 9 0 13 5 10 10 -3 6 -8 10 -10 10
-2 0 -7 -4 -10 -10z"/>
<path d="M2078 10233 c7 -3 16 -2 19 1 4 3 -2 6 -13 5 -11 0 -14 -3 -6 -6z"/>
<path d="M2160 10221 c0 -15 -5 -18 -22 -14 -22 5 -22 4 2 -16 20 -16 21 -21
8 -21 -9 0 -19 4 -22 9 -6 9 -55 3 -72 -10 -6 -5 -14 -6 -17 -2 -4 3 1 12 11
19 14 11 14 13 2 13 -21 0 -51 -24 -42 -34 4 -5 1 -5 -5 -1 -18 10 -16 26 5
42 16 12 15 13 -5 14 -12 0 -25 -4 -28 -10 -3 -5 -15 -10 -26 -10 -10 0 -19
-3 -19 -7 0 -9 -48 -33 -66 -33 -6 0 -33 -12 -59 -27 -41 -23 -45 -28 -29 -34
10 -4 15 -8 10 -8 -6 -1 -2 -7 9 -14 13 -10 15 -16 6 -21 -7 -5 -23 3 -38 18
-14 14 -28 24 -32 23 -77 -35 -120 -61 -114 -70 4 -6 0 -8 -10 -4 -11 4 -17 1
-17 -9 0 -10 -7 -13 -25 -8 -14 3 -25 2 -25 -3 0 -5 -30 -27 -66 -48 -36 -21
-78 -51 -92 -67 -15 -15 -31 -28 -35 -28 -5 0 -29 -19 -54 -42 -25 -24 -61
-56 -80 -73 -50 -45 -134 -128 -147 -146 -6 -8 -20 -22 -32 -30 -18 -12 -44
-40 -140 -151 -20 -24 -171 -246 -233 -343 -38 -60 -110 -212 -135 -287 -14
-43 -47 -160 -72 -260 -91 -359 -101 -440 -113 -895 -5 -192 -12 -317 -18
-325 -17 -20 -24 -661 -25 -2218 0 -1439 7 -1870 37 -2130 70 -602 215 -1003
496 -1371 109 -142 188 -226 338 -358 167 -147 212 -181 371 -280 161 -100
216 -130 355 -191 211 -94 -123 -85 3180 -85 2333 0 2935 3 2994 13 142 24
407 143 601 269 287 187 595 500 781 793 206 325 333 720 384 1200 28 266 37
1032 32 3004 -4 1922 -5 1969 -43 2206 -20 130 -61 319 -84 390 -4 14 -13 45
-20 70 -7 25 -16 54 -20 65 -5 11 -18 47 -30 80 -28 78 -152 327 -212 429 -27
44 -48 82 -48 86 0 3 -29 42 -65 85 -36 44 -84 105 -107 135 -23 30 -108 120
-188 200 -164 162 -265 237 -430 320 -30 15 -89 44 -130 65 -41 21 -86 44
-100 50 -14 7 -47 23 -75 35 -27 12 -74 33 -103 46 -60 27 -178 34 -201 12
-10 -10 -15 -10 -18 -2 -3 8 -62 12 -198 13 -186 2 -194 1 -205 -19 -13 -25
-70 -29 -70 -4 0 8 -5 12 -10 9 -8 -5 -8 -11 0 -20 18 -22 -18 -34 -111 -38
-61 -3 -88 0 -97 10 -10 9 -25 11 -50 7 -32 -6 -43 -13 -54 -34 -2 -3 -43 -4
-92 -2 -62 3 -85 7 -75 13 10 7 2 9 -26 8 -22 -2 -53 1 -69 6 -22 6 -31 4 -37
-8 -7 -12 -16 -13 -43 -6 -19 5 -84 8 -145 5 -89 -4 -110 -2 -115 10 -3 8 -12
14 -21 14 -8 0 -15 5 -15 10 0 6 -18 10 -39 10 -30 0 -44 -6 -59 -24 -17 -22
-26 -25 -84 -24 -36 1 -71 -3 -79 -8 -18 -11 -293 -5 -297 7 -5 13 -60 11
-122 -6 -84 -23 -199 -16 -262 16 -10 5 -18 4 -20 -3 -3 -9 -13 -8 -37 2 -25
10 -35 10 -40 1 -4 -6 -15 -9 -24 -5 -9 3 -26 -1 -39 -10 -25 -18 -98 -22 -98
-6 0 12 -93 14 -104 3 -5 -5 -76 -8 -159 -8 -111 0 -151 -3 -154 -12 -4 -10
15 -13 72 -13 48 0 74 -4 70 -10 -3 -5 -40 -10 -81 -10 -59 0 -74 3 -74 15 0
22 -28 18 -35 -4 -6 -19 -8 -19 -51 -3 -36 13 -44 21 -40 35 4 17 1 18 -27 12
-61 -13 -297 -18 -297 -6 0 6 -15 11 -33 11 -18 0 -38 5 -44 11 -6 6 -48 10
-99 10 -85 0 -90 -2 -112 -28 -17 -22 -24 -25 -31 -14 -14 22 -1 51 25 51 26
0 41 17 26 32 -6 6 -20 4 -41 -6 -25 -13 -31 -23 -32 -49 0 -17 -4 -41 -9 -52
-6 -15 -9 -6 -9 33 -1 66 -21 61 -21 -6 -1 -41 -2 -45 -14 -29 -7 9 -18 17
-23 17 -13 0 -23 34 -23 78 0 42 -25 43 -34 1 -5 -24 -10 -30 -24 -27 -11 3
-30 -1 -43 -8 -40 -22 -51 -18 -44 16 l7 30 -56 0 c-31 0 -56 5 -56 10 0 6
-11 10 -25 10 -14 0 -25 -4 -25 -10 0 -5 -7 -10 -15 -10 -8 0 -15 5 -15 10 0
6 -19 10 -42 10 -32 0 -39 -3 -28 -10 12 -8 9 -10 -12 -10 -19 0 -28 -5 -28
-16 0 -10 -6 -14 -15 -11 -8 4 -17 2 -20 -3 -9 -14 -22 -12 -28 3 -9 23 9 43
26 29 7 -7 17 -9 20 -5 15 15 5 23 -28 23 -33 0 -35 -2 -35 -32 0 -25 -3 -29
-10 -18 -5 8 -7 23 -4 33 4 12 0 17 -13 17 -13 0 -19 -7 -18 -22 0 -35 -19
-36 -26 -2 l-6 29 -5 -30 -5 -30 -2 28 c-1 34 -21 36 -21 2 0 -14 -4 -25 -10
-25 -5 0 -10 11 -10 25 0 14 -4 25 -10 25 -5 0 -10 -11 -10 -24 0 -14 -4 -28
-10 -31 -6 -4 -10 7 -10 25 0 28 -3 31 -27 28 -22 -2 -29 -9 -31 -32 l-4 -28
-91 5 c-73 4 -95 2 -109 -10 -13 -12 -21 -12 -38 -3 -16 9 -25 9 -33 1 -16
-16 -47 -13 -53 4 -7 18 -45 20 -61 4 -7 -7 -28 -13 -49 -15 -21 -2 -41 -9
-46 -16 -4 -7 -8 -8 -8 -3 0 7 -83 11 -240 12 -137 1 -240 -3 -240 -8 0 -21
-54 -3 -90 30 -11 11 -12 15 -2 19 24 8 12 24 -13 18 -18 -5 -27 -2 -31 9 -9
21 -24 19 -24 -4z m1540 -26 c0 -21 -18 -28 -48 -20 l-27 7 28 10 c15 5 25 14
22 19 -4 5 1 6 9 3 9 -3 16 -12 16 -19z m114 4 c12 -11 -16 -22 -46 -17 -12 2
-24 11 -26 20 -3 15 2 17 30 12 18 -4 37 -10 42 -15z m-484 -10 c0 -5 -4 -9
-10 -9 -5 0 -10 7 -10 16 0 8 5 12 10 9 6 -3 10 -10 10 -16z m-1356 -14 c-4
-8 -10 -15 -15 -15 -5 0 -9 7 -9 15 0 8 7 15 15 15 9 0 12 -6 9 -15z m1221
-15 c7 -12 -2 -12 -30 0 -19 8 -19 9 2 9 12 1 25 -3 28 -9z m1158 -7 c-7 -2
-19 -2 -25 0 -7 3 -2 5 12 5 14 0 19 -2 13 -5z m-2458 -13 c3 -5 -1 -10 -10
-10 -9 0 -13 5 -10 10 3 6 8 10 10 10 2 0 7 -4 10 -10z m153 -17 c2 -8 -6 -13
-22 -13 -17 0 -26 5 -26 16 0 19 41 16 48 -3z m2189 -5 c-3 -8 -6 -5 -6 6 -1
11 2 17 5 13 3 -3 4 -12 1 -19z m-2387 -3 c10 -12 7 -15 -15 -21 -32 -8 -42 0
-25 21 16 19 24 19 40 0z m1045 -1 c-22 -17 -46 -15 -53 4 -2 8 8 12 35 12 36
-1 37 -1 18 -16z m965 6 c0 -5 -4 -10 -10 -10 -5 0 -10 5 -10 10 0 6 5 10 10
10 6 0 10 -4 10 -10z m137 -17 c-3 -3 -11 -2 -17 2 -9 6 -9 10 1 16 14 8 27
-7 16 -18z m3203 7 c0 -5 -7 -10 -16 -10 -8 0 -12 5 -9 10 3 6 10 10 16 10 5
0 9 -4 9 -10z m-5457 -54 c11 -8 14 -17 8 -20 -5 -4 -12 -2 -16 4 -9 15 -25
12 -25 -6 0 -8 -5 -12 -10 -9 -7 4 -7 13 0 26 13 22 19 23 43 5z m127 -10 c0
-2 -7 -6 -15 -10 -8 -3 -15 -1 -15 4 0 6 7 10 15 10 8 0 15 -2 15 -4z m-213
-22 c-3 -3 -12 -4 -19 -1 -8 3 -5 6 6 6 11 1 17 -2 13 -5z m-60 -69 c-4 -8
-16 -15 -27 -15 -11 0 -20 -4 -20 -10 0 -5 -7 -7 -16 -3 -11 4 -12 8 -4 13 7
4 9 13 6 19 -4 6 -2 11 3 11 6 0 11 -5 11 -11 0 -7 8 -6 23 4 25 17 32 15 24
-8z m-93 -23 c2 -4 -4 -8 -15 -8 -10 0 -19 4 -19 8 0 4 6 8 14 8 8 0 17 -4 20
-8z m83 -18 c-3 -3 -12 -4 -19 -1 -8 3 -5 6 6 6 11 1 17 -2 13 -5z m1759 -926
c59 -16 103 -66 139 -157 27 -65 27 -68 20 -224 -4 -91 -2 -302 6 -497 14
-383 14 -389 -54 -466 -49 -56 -84 -74 -140 -74 -76 0 -175 79 -197 158 -6 22
-10 173 -11 367 0 182 -4 368 -10 415 -25 233 -24 265 16 355 14 32 85 95 105
95 7 0 23 9 37 20 30 24 30 24 89 8z m3595 -23 c48 -17 84 -47 104 -85 30 -59
34 -135 35 -626 1 -535 2 -531 -50 -597 -29 -36 -90 -67 -148 -74 -41 -4 -52
-1 -88 25 -53 39 -89 88 -98 132 -4 19 -9 255 -12 525 -5 619 -1 650 101 696
50 22 100 23 156 4z m-523 -363 c10 -7 13 -80 13 -343 -1 -184 -4 -384 -7
-444 -5 -89 -3 -123 10 -170 26 -89 71 -163 142 -232 70 -67 114 -91 219 -118
81 -20 130 -15 225 23 143 58 231 144 288 282 33 83 35 106 30 554 l-4 446 35
-6 c20 -3 47 -9 61 -14 14 -4 45 -13 70 -20 225 -62 466 -205 625 -371 154
-162 249 -319 312 -519 29 -91 37 -119 64 -220 7 -28 13 -175 16 -387 l5 -341
-88 -4 c-49 -2 -1594 -4 -3433 -3 l-3344 0 6 340 c5 249 11 361 22 420 9 44
19 95 22 113 3 18 9 35 14 38 5 3 9 16 9 29 0 13 5 27 10 30 6 3 10 13 10 22
0 28 79 183 143 282 35 53 102 137 148 186 85 89 229 212 277 236 15 7 38 21
52 29 14 9 50 27 80 39 30 13 69 29 85 36 71 32 200 69 279 80 l48 8 -3 -469
c-4 -482 -4 -477 34 -564 68 -154 269 -300 412 -300 107 0 265 76 345 167 22
25 53 72 69 105 51 102 55 141 42 463 -6 160 -11 356 -11 438 l0 147 518 1
c617 2 2016 13 2087 17 28 1 56 -2 63 -6z m-4438 -3702 l5 -1475 23 -90 c32
-124 43 -157 100 -276 87 -183 230 -357 397 -481 114 -84 314 -180 450 -215
l110 -28 2035 0 2035 0 90 28 c270 83 420 170 589 341 186 189 306 416 364
691 16 73 17 205 17 1534 l0 1453 160 -3 c91 -2 163 -8 167 -14 12 -16 10
-2712 -2 -2859 -19 -227 -69 -396 -192 -639 -44 -87 -101 -186 -127 -220 -87
-117 -260 -285 -362 -353 -53 -35 -99 -64 -103 -64 -5 0 -20 -9 -35 -19 -75
-54 -245 -126 -378 -161 -201 -53 -68 -50 -2184 -50 -2137 0 -2041 -2 -2274
55 -197 49 -451 178 -615 312 -247 202 -413 437 -504 713 -86 262 -86 258 -96
775 -10 487 -12 2437 -3 2493 l5 32 162 -2 161 -3 5 -1475z m2085 1375 c95
-24 169 -85 202 -164 23 -55 13 -183 -20 -247 -32 -64 -95 -121 -144 -131 -65
-14 -219 -7 -268 11 -119 46 -193 220 -152 359 13 47 88 130 134 149 93 39
163 45 248 23z m1136 3 c42 -14 116 -63 147 -97 75 -82 85 -235 22 -334 -59
-93 -168 -136 -310 -122 -83 9 -137 32 -183 81 -57 60 -77 111 -77 198 0 87
15 128 67 179 83 84 238 128 334 95z m-2167 -32 c47 -27 80 -65 112 -126 23
-44 24 -188 1 -241 -22 -53 -76 -110 -125 -132 -58 -25 -210 -34 -283 -17 -42
10 -64 23 -104 64 -28 28 -59 69 -70 91 -26 54 -32 177 -11 226 30 70 134 151
211 163 17 2 73 3 126 2 84 -3 103 -6 143 -30z m3336 9 c44 -23 108 -83 139
-130 23 -36 26 -50 26 -130 -1 -99 -18 -147 -74 -204 -49 -50 -87 -64 -192
-69 -173 -8 -250 30 -309 153 -38 80 -42 180 -9 250 30 64 122 136 189 149 51
9 198 -3 230 -19z m1102 -8 c68 -30 112 -68 144 -123 24 -40 26 -52 22 -132
-5 -123 -35 -177 -133 -241 -37 -24 -49 -26 -146 -26 -100 0 -108 2 -155 30
-114 71 -169 205 -132 327 14 48 88 133 131 152 18 7 43 18 57 24 47 20 154
14 212 -11z m-3374 -930 c58 -18 134 -85 162 -144 36 -74 34 -180 -4 -256 -40
-79 -89 -133 -134 -149 -22 -7 -82 -13 -147 -13 -126 0 -167 15 -225 81 -56
65 -80 128 -80 217 0 136 54 216 171 252 30 9 59 18 64 20 27 9 155 3 193 -8z
m1121 1 c74 -25 139 -75 170 -130 27 -46 31 -63 31 -129 0 -104 -22 -162 -84
-225 -66 -65 -147 -91 -258 -80 -106 10 -144 23 -190 64 -66 60 -88 118 -88
234 0 80 4 104 21 135 48 90 151 139 293 142 38 0 86 -4 105 -11z m2329 -46
c35 -23 68 -56 87 -86 28 -47 30 -55 30 -150 0 -74 -5 -109 -17 -131 -26 -48
-88 -106 -137 -128 -57 -25 -180 -34 -248 -18 -66 16 -139 74 -176 139 -26 47
-29 62 -30 141 0 78 3 93 28 140 45 82 119 127 230 140 97 11 169 -3 233 -47z
m-4513 18 c68 -42 113 -108 129 -188 14 -68 7 -117 -27 -192 -34 -74 -89 -126
-150 -141 -67 -16 -272 -8 -313 14 -43 22 -103 93 -130 155 -29 63 -32 160 -8
218 18 45 75 108 119 132 65 36 323 37 380 2z m3360 3 c55 -29 120 -99 140
-151 39 -97 4 -234 -81 -319 -53 -53 -101 -67 -229 -67 -113 -1 -156 15 -219
80 -57 59 -76 111 -76 209 0 99 17 143 75 193 75 67 125 82 255 78 74 -2 104
-7 135 -23z m-3372 -962 c85 -52 136 -142 137 -237 0 -113 -46 -212 -125 -263
-38 -25 -46 -26 -181 -26 l-141 0 -54 41 c-31 24 -68 64 -87 97 -31 51 -34 62
-34 138 0 97 23 151 87 206 68 59 121 73 266 69 79 -2 103 -7 132 -25z m1092
15 c74 -31 157 -140 171 -224 18 -113 -65 -271 -164 -313 -51 -22 -180 -26
-263 -8 -63 14 -124 71 -163 154 -33 70 -37 189 -7 251 33 68 105 128 175 144
56 14 214 11 251 -4z m1153 -10 c46 -24 104 -84 127 -131 37 -76 19 -239 -34
-312 -15 -21 -52 -51 -82 -68 -50 -28 -61 -30 -159 -30 -58 0 -123 6 -146 13
-55 16 -114 69 -148 133 -26 47 -29 62 -29 138 1 102 16 143 72 194 79 71 130
87 271 83 67 -1 105 -7 128 -20z m1139 -11 c101 -74 127 -124 127 -240 0 -105
-22 -163 -86 -227 -56 -56 -94 -68 -217 -68 -121 0 -164 14 -219 71 -56 57
-82 127 -82 220 0 94 17 136 79 192 79 71 133 88 273 83 77 -3 92 -7 125 -31z
m1108 4 c48 -23 115 -101 134 -158 43 -130 -24 -302 -143 -363 -59 -30 -233
-29 -299 2 -48 23 -101 78 -131 137 -20 39 -22 164 -3 226 17 60 100 141 163
161 77 23 224 21 279 -5z m-3440 -951 c48 -9 66 -19 110 -63 57 -56 75 -97 75
-176 0 -55 -10 -110 -19 -105 -3 2 -7 -6 -7 -18 -2 -22 -44 -96 -74 -127 -47
-49 -188 -73 -277 -48 -53 15 -133 86 -172 151 -28 47 -39 163 -21 228 14 53
87 130 123 130 13 0 28 5 34 11 13 13 80 8 73 -6 -3 -5 -20 -8 -37 -6 -18 1
-33 -2 -33 -7 0 -6 -3 -17 -6 -26 -4 -12 0 -16 15 -16 12 0 21 6 21 15 0 20 6
19 30 -5 24 -24 25 -31 5 -24 -8 4 -15 2 -15 -2 0 -5 -3 -19 -6 -31 -6 -21 -4
-22 50 -16 50 5 56 4 56 -13 0 -16 -7 -19 -45 -17 -25 0 -42 -3 -39 -8 3 -5
27 -9 53 -9 l48 0 -5 31 c-3 22 -1 30 7 25 6 -4 11 -13 11 -21 0 -8 4 -16 8
-19 5 -3 5 16 2 42 -8 49 2 92 20 92 6 0 8 5 5 10 -4 6 -10 8 -14 6 -12 -8
-101 15 -95 25 7 12 49 11 119 -3z m-55 -52 c0 -8 -61 -12 -66 -4 -3 4 11 8
30 8 20 0 36 -2 36 -4z m1343 -66 c3 -12 0 -17 -8 -14 -7 3 -15 14 -18 24 -3
12 0 17 8 14 7 -3 15 -14 18 -24z m-1391 8 c-9 -9 -15 -9 -24 0 -9 9 -7 12 12
12 19 0 21 -3 12 -12z m2515 -30 c-3 -8 -6 -5 -6 6 -1 11 2 17 5 13 3 -3 4
-12 1 -19z m-1110 -30 c-3 -8 -6 -5 -6 6 -1 11 2 17 5 13 3 -3 4 -12 1 -19z
m-557 -85 c0 -27 -4 -43 -8 -36 -8 12 -4 83 4 83 2 0 4 -21 4 -47z m565 -79
c-3 -18 -12 -38 -21 -45 -13 -11 -14 -9 -9 17 4 16 11 42 16 58 5 16 10 41 11
55 1 15 3 10 5 -14 3 -21 2 -53 -2 -71z m-2788 39 c-3 -10 -5 -4 -5 12 0 17 2
24 5 18 2 -7 2 -21 0 -30z m2749 -22 c-2 -35 -13 -50 -22 -28 -5 13 10 57 20
57 2 0 3 -13 2 -29z m-506 -33 c0 -24 18 -59 39 -75 9 -7 12 -13 7 -13 -5 0 1
-9 14 -20 13 -11 20 -23 17 -27 -19 -18 -84 79 -101 151 -6 26 -5 28 8 17 9
-8 16 -22 16 -33z m-2226 -4 c3 -8 2 -12 -4 -9 -6 3 -10 10 -10 16 0 14 7 11
14 -7z m2726 -76 c0 -16 -3 -19 -11 -11 -6 6 -8 16 -5 22 11 17 16 13 16 -11z
m-20 -20 c0 -22 -43 -58 -69 -57 l-26 1 28 10 c15 5 27 14 27 19 0 5 8 9 18
10 10 0 12 3 4 6 -6 2 -10 9 -6 14 8 13 24 11 24 -3z m-55 -8 c3 -5 -1 -10
-10 -10 -9 0 -13 5 -10 10 3 6 8 10 10 10 2 0 7 -4 10 -10z m1153 -33 c-23
-21 -66 -39 -80 -34 -8 3 -5 6 8 6 11 1 31 12 44 26 12 13 27 22 32 19 4 -3 2
-11 -4 -17z m-1458 -6 c0 -5 12 -14 28 -19 l27 -10 -27 -1 c-16 -1 -28 4 -28
9 0 6 -7 10 -15 10 -8 0 -15 5 -15 10 0 6 7 10 15 10 8 0 15 -4 15 -9z m254
-37 c-30 -16 -164 -19 -164 -4 0 6 33 10 80 10 45 0 80 4 80 10 0 5 7 7 15 3
12 -4 10 -9 -11 -19z m1106 -4 c0 -6 -33 -10 -82 -9 -60 1 -75 4 -53 9 45 11
135 11 135 0z"/>
<path d="M4088 3343 c7 -3 16 -2 19 1 4 3 -2 6 -13 5 -11 0 -14 -3 -6 -6z"/>
<path d="M3800 3325 c-10 -12 -9 -15 8 -15 11 0 22 7 26 15 3 9 0 15 -8 15 -7
0 -19 -7 -26 -15z"/>
<path d="M4110 3315 c0 -9 9 -15 21 -15 18 0 19 2 9 15 -7 8 -16 15 -21 15 -5
0 -9 -7 -9 -15z"/>
<path d="M4056 3299 c-17 -16 -17 -19 -3 -19 8 0 17 -6 20 -12 2 -7 2 -3 0 10
-2 12 1 22 7 22 5 0 10 5 10 10 0 15 -13 11 -34 -11z"/>
<path d="M3799 3291 c11 -7 11 -9 0 -13 -9 -3 -9 -7 -2 -11 6 -4 18 2 28 13
18 19 17 20 -11 20 -20 0 -25 -3 -15 -9z"/>
<path d="M4094 3279 c-11 -19 13 -34 31 -19 13 11 13 15 3 21 -18 12 -26 11
-34 -2z"/>
<path d="M4160 3261 c0 -24 4 -29 20 -26 24 5 44 -27 35 -55 -6 -19 10 -37 19
-21 12 18 -7 71 -35 101 -16 16 -31 30 -34 30 -3 0 -5 -13 -5 -29z"/>
<path d="M3753 3266 c1 -11 9 -21 17 -23 10 -3 11 -2 4 4 -6 4 -14 15 -17 23
-5 11 -6 9 -4 -4z"/>
<path d="M3850 3265 c0 -8 4 -15 9 -15 5 0 11 7 15 15 3 9 0 15 -9 15 -8 0
-15 -7 -15 -15z"/>
<path d="M3743 3222 c-7 -4 -16 -19 -22 -34 -8 -21 -7 -28 5 -32 24 -9 25 -8
18 20 -4 17 -2 29 7 35 7 4 11 10 8 13 -2 3 -10 2 -16 -2z"/>
<path d="M3714 3110 c0 -13 4 -16 10 -10 7 7 7 13 0 20 -6 6 -10 3 -10 -10z"/>
<path d="M3734 3054 c-12 -5 -6 -64 7 -64 5 0 9 16 9 35 0 19 -1 35 -2 34 -2
0 -8 -3 -14 -5z"/>
<path d="M4206 3024 c-4 -9 -4 -19 -1 -22 2 -3 7 3 11 12 4 9 4 19 1 22 -2 3
-7 -3 -11 -12z"/>
<path d="M4120 2915 c-18 -21 -3 -32 16 -13 10 9 12 18 6 22 -5 3 -15 -1 -22
-9z"/>
<path d="M3817 2909 c7 -7 15 -10 18 -7 3 3 -2 9 -12 12 -14 6 -15 5 -6 -5z"/>
<path d="M2857 10234 c-14 -14 -6 -24 19 -24 16 0 24 5 22 13 -5 14 -31 21
-41 11z"/>
<path d="M3950 10210 c0 -5 9 -10 20 -10 11 0 20 5 20 10 0 6 -9 10 -20 10
-11 0 -20 -4 -20 -10z"/>
<path d="M7340 10210 c0 -5 5 -10 10 -10 6 0 10 5 10 10 0 6 -4 10 -10 10 -5
0 -10 -4 -10 -10z"/>
<path d="M4070 10175 c-10 -12 -10 -15 4 -15 9 0 16 7 16 15 0 8 -2 15 -4 15
-2 0 -9 -7 -16 -15z"/>
<path d="M5778 10183 c12 -2 32 -2 45 0 12 2 2 4 -23 4 -25 0 -35 -2 -22 -4z"/>
</g>
</svg>
